<?xml version="1.0" encoding="UTF-8"?><svg id="a" xmlns="http://www.w3.org/2000/svg" viewBox="0 0 100 100"><defs><style>.b{fill:#231815;}</style></defs><path class="b" d="M80.01,97.99H20.15c-4.3,0-7.79-3.49-7.79-7.79V10.01c0-4.3,3.49-7.79,7.79-7.79h59.86c4.3,0,7.79,3.49,7.79,7.79V90.2c0,4.3-3.49,7.79-7.79,7.79ZM20.15,5.22c-2.64,0-4.79,2.15-4.79,4.79V90.2c0,2.64,2.15,4.79,4.79,4.79h59.86c2.64,0,4.79-2.15,4.79-4.79V10.01c0-2.64-2.15-4.79-4.79-4.79H20.15Z"/><path class="b" d="M28.38,65.15c-.94,2.11-1.41,2.64-2.29,2.64-1.47,0-2.7-2.52-2.7-5.51,0-1.23,.18-1.58,1.29-2.7,1.17-1.11,2.23-2.34,3.93-4.75q5.57-7.74,6.92-9.91,.06-.88,.12-2.11,.06-.94,.12-1.82-1.82,1.11-5.34,3.58c-1,.7-1.41,.88-1.99,.88-1.11,0-2.4-1-3.52-2.76-.82-1.23-1.35-2.64-1.35-3.52,0-.29,.12-.7,.35-1.41,1.29,2.11,2.58,3.05,4.22,3.05,1.35,0,4.51-1.11,7.86-2.81,.29-2.58,.35-4.1,.35-6.39,0-3.28-1.06-5.28-3.75-6.8,.47-.23,.76-.29,1.11-.29,1.58,0,3.99,1,6.04,2.58,1.99,1.52,3.05,2.99,3.05,4.28,0,.76-.12,1.17-.76,2.46-.64,1.29-.88,2.05-1.17,3.34,1.35,1,1.99,1.82,1.99,2.58,0,.41-.23,.82-1,1.93-1.06,1.58-1.64,2.58-2.05,3.4-.06,.35-.12,1-.12,1.99,8.33-8.5,14.07-12.31,18.47-12.31s7.56,3.11,7.56,7.8c0,1.7-.35,4.46-1,8.38-1.17,7.09-1.41,8.91-1.41,11.26,0,2.64,1.35,4.05,3.93,4.05,3.17,0,7.15-1.82,11.14-5.04l.35,.47c-3.4,5.92-8.85,9.67-13.9,9.67s-7.8-3.28-7.8-8.68c0-2.58,.29-4.46,1.99-12.31,.94-4.28,1.35-7.04,1.35-8.85,0-2.7-1.29-4.22-3.58-4.22-3.87,0-10.2,5.28-17.36,14.54-.06,1.17-.06,1.23-.06,2.52,0,4.4,.12,6.98,.64,11.49,.12,1.06,.18,1.99,.18,2.7,0,1.53-.47,3.52-1.11,4.87-.76,1.52-1.82,2.29-3.11,2.29-.7,0-1.35-.35-1.76-.94-.23-.35-.29-.59-.41-1.53-.35-1.99-.65-3.05-1.35-4.22-1-1.7-1.99-2.99-3.64-4.81l-.47,.94Zm1-2.11c1.88,1.47,3.93,2.81,5.51,3.58q.12-2.99,.23-9.5c.06-1.99,.06-3.28,.18-5.39-3.52,6.74-5.51,10.5-5.92,11.32Z"/></svg>